<?xml version="1.0" ?><!DOCTYPE svg  PUBLIC '-//W3C//DTD SVG 1.1//EN'  'http://www.w3.org/Graphics/SVG/1.1/DTD/svg11.dtd'><svg height="8.26772in" style="shape-rendering:geometricPrecision; text-rendering:geometricPrecision; image-rendering:optimizeQuality; fill-rule:evenodd; clip-rule:evenodd" version="1.1" viewBox="0 0 826772 826772" width="8.26772in" xml:space="preserve" xmlns="http://www.w3.org/2000/svg" xmlns:xlink="http://www.w3.org/1999/xlink"><defs><style type="text/css">
   <![CDATA[
    .fil0 {fill:#DD4B39}
    .fil1 {fill:#2E373C;fill-rule:nonzero}
    .fil2 {fill:white;fill-rule:nonzero}
   ]]>
  </style></defs><g id="Layer_x0020_1"><polygon class="fil0" points="0,0 826772,0 826772,826772 0,826772 "/><g id="_2016287033968"><g><polygon class="fil1" points="216825,344407 313393,344407 313393,620321 216825,620321 "/><path class="fil1" d="M265109 206451c26668,0 48284,21619 48284,48284 0,26668 -21616,48287 -48284,48287 -26668,0 -48284,-21619 -48284,-48287 0,-26665 21616,-48284 48284,-48284z"/><path class="fil1" d="M630694 468694c0,-74456 -16059,-124287 -102846,-124287 -41705,0 -69710,15494 -81160,37235l-1187 0 0 -37235 -76925 0 0 275914 80402 0 0 -136756c0,-36062 6814,-70978 51430,-70978 43953,0 47499,41233 47499,73309l0 134425 82773 0 0 -151627 14 0z"/></g><g><polygon class="fil2" points="196078,344407 292646,344407 292646,620321 196078,620321 "/><path class="fil2" d="M244362 206451c26668,0 48284,21619 48284,48284 0,26668 -21616,48287 -48284,48287 -26668,0 -48284,-21619 -48284,-48287 0,-26665 21616,-48284 48284,-48284z"/><path class="fil2" d="M609947 468694c0,-74456 -16058,-124287 -102846,-124287 -41705,0 -69710,15494 -81160,37235l-1187 0 0 -37235 -76924 0 0 275914 80401 0 0 -136756c0,-36062 6814,-70978 51430,-70978 43953,0 47499,41233 47499,73309l0 134425 82773 0 0 -151627 14 0z"/></g></g></g></svg>